<svg width="29" height="12" viewBox="0 0 29 12" fill="none" xmlns="http://www.w3.org/2000/svg">
<g clip-path="url(#clip0_190_868)">
<path d="M20.5564 3.23865C21.3536 3.23865 21.9697 3.46447 22.4408 3.91612C22.9119 4.36771 23.1293 4.96988 23.1293 5.72259V9.33553H22.1147V8.50765H22.0784C21.6436 9.18512 21.0275 9.52382 20.3027 9.52382C19.6866 9.52382 19.1431 9.33559 18.7082 8.95929C18.3096 8.58294 18.0559 8.05606 18.0559 7.49153C18.0559 6.88935 18.2734 6.40006 18.7082 6.02371C19.1431 5.64735 19.7591 5.49682 20.4839 5.49682C21.1362 5.49682 21.6436 5.60977 22.0422 5.87318V5.60976C22.0422 5.25847 21.9159 4.90724 21.6633 4.67835L21.6073 4.63124C21.3174 4.36777 20.955 4.21724 20.5564 4.21724C19.9403 4.21724 19.4693 4.48071 19.1431 5.00759L18.2009 4.40529C18.7807 3.61494 19.5417 3.23865 20.5564 3.23865ZM15.4467 0.679472C16.097 0.679472 16.7149 0.914472 17.209 1.35271L17.2949 1.43212C17.8023 1.88377 18.0559 2.56124 18.0559 3.27629C18.0559 3.99135 17.8023 4.63118 17.2949 5.12041C16.7875 5.60971 16.1715 5.87312 15.4467 5.87312L13.7073 5.83547V9.33559H12.6201V0.679413L15.4467 0.679472ZM20.7013 6.40006C20.2665 6.40006 19.9041 6.51294 19.6142 6.73876C19.3243 6.92694 19.1793 7.19035 19.1793 7.52906C19.1793 7.83018 19.3243 8.09359 19.5417 8.24418C19.7954 8.43235 20.0853 8.54524 20.3752 8.54524C20.781 8.54524 21.1869 8.38129 21.5044 8.08406L21.5711 8.01835C21.9335 7.67965 22.1147 7.26565 22.1147 6.814C21.7885 6.55059 21.3174 6.4 20.7014 6.4L20.7013 6.40006ZM15.5192 1.73324H13.7073V4.74412H15.5192C15.9178 4.74412 16.3165 4.59359 16.5702 4.29253C17.1499 3.728 17.1499 2.78712 16.6064 2.22253L16.5702 2.18488C16.2802 1.88382 15.9178 1.69565 15.5192 1.7333L15.5192 1.73324ZM29 3.42682L25.4124 11.9701H24.3252L25.666 8.99688L23.3105 3.46447H24.4702L26.1733 7.71723H26.2096L27.8766 3.46447H29V3.42682Z" fill="#5F6368"/>
<path d="M9.39487 5.08277C9.39487 4.74406 9.35862 4.40536 9.32237 4.06665H4.79265V5.98606H7.36555C7.25686 6.58818 6.93072 7.15271 6.42339 7.49147V8.73341H7.98163C8.8876 7.86783 9.39493 6.58818 9.39493 5.08283L9.39487 5.08277Z" fill="#4285F4"/>
<path d="M4.79259 9.93777C6.09714 9.93777 7.1843 9.48612 7.98157 8.73341L6.42333 7.49147C5.98844 7.79253 5.44486 7.98071 4.79259 7.98071C3.56043 7.98071 2.47327 7.11512 2.11088 5.91077H0.516449V7.19035C1.34992 8.88394 2.98066 9.93777 4.79259 9.93777Z" fill="#34A853"/>
<path d="M2.11088 5.91076C1.8935 5.30859 1.8935 4.63117 2.11088 3.99135V2.71176H0.51645C-0.17213 4.10429 -0.17213 5.76023 0.51645 7.19035L2.11088 5.91076Z" fill="#FBBC04"/>
<path d="M4.79259 1.95906C5.48111 1.95906 6.13339 2.22253 6.64077 2.71177L8.01782 1.28165C7.14805 0.453652 5.98844 -0.0355835 4.82878 0.00200477C3.01685 0.00200477 1.34992 1.05583 0.552643 2.74942L2.14713 4.029C2.47327 2.82465 3.56043 1.95906 4.79259 1.95906Z" fill="#EA4335"/>
</g>
<defs>
<clipPath id="clip0_190_868">
<rect width="29" height="12" fill="white"/>
</clipPath>
</defs>
</svg>
