<svg width="10" height="12" viewBox="0 0 10 12" fill="none" xmlns="http://www.w3.org/2000/svg">
<g clip-path="url(#clip0_190_874)">
<path d="M8.48292 0.934054C7.93862 0.302981 6.95472 0.0324249 5.69601 0.0324249H2.04288C1.91834 0.0324296 1.79789 0.0776252 1.70318 0.159886C1.60847 0.242147 1.54572 0.356077 1.5262 0.481193L0.00510693 10.2945C-0.0251274 10.488 0.122177 10.6632 0.31499 10.6632H2.5703L3.13671 7.00872L3.11913 7.12315C3.15948 6.86484 3.37667 6.67431 3.63386 6.67431H4.70558C6.81097 6.67431 8.45952 5.80442 8.94108 3.28804C8.95538 3.21362 8.96776 3.14118 8.97847 3.07041C8.91769 3.03767 8.91769 3.03767 8.97847 3.07041C9.12187 2.14033 8.97749 1.50723 8.48292 0.934054Z" fill="#27346A"/>
<path d="M3.99968 2.73537C4.06133 2.7055 4.12877 2.69003 4.19706 2.69007H7.06104C7.40019 2.69007 7.71651 2.71252 8.00558 2.75984C8.08646 2.77296 8.16693 2.78862 8.24687 2.80681C8.36016 2.83224 8.47215 2.86336 8.58241 2.90007C8.72452 2.94835 8.85686 3.00457 8.97851 3.07041C9.12186 2.13997 8.97749 1.50723 8.48292 0.934054C7.93831 0.302981 6.95472 0.0324249 5.69601 0.0324249H2.04257C1.78534 0.0324249 1.56651 0.222915 1.5262 0.481193L0.00510714 10.2941C-0.0251272 10.4879 0.122177 10.6629 0.314677 10.6629H2.5703L3.74542 3.08265C3.75697 3.00814 3.78615 2.93761 3.83044 2.87711C3.87473 2.81661 3.93281 2.76797 3.99968 2.73537Z" fill="#27346A"/>
<path d="M8.94129 3.28803C8.45973 5.80406 6.81121 6.6743 4.70578 6.6743H3.63375C3.37656 6.6743 3.15934 6.86483 3.11938 7.12315L2.41473 11.6671C2.3884 11.8364 2.51715 11.9899 2.68559 11.9899H4.58676C4.69566 11.9898 4.80099 11.9503 4.88378 11.8783C4.96658 11.8063 5.02142 11.7067 5.03844 11.5973L5.05695 11.4987L5.41527 9.18869L5.43836 9.06103C5.45538 8.95161 5.51021 8.85197 5.593 8.78C5.67579 8.70804 5.7811 8.66848 5.89 8.66844H6.17453C8.01621 8.66844 9.45828 7.90736 9.87969 5.70619C10.0556 4.78632 9.96457 4.01832 9.49926 3.47888C9.35813 3.31549 9.18285 3.18055 8.97867 3.0704C8.96762 3.14153 8.95563 3.21361 8.94129 3.28803Z" fill="#2790C3"/>
<path d="M8.47469 2.86601C8.3996 2.8437 8.32381 2.82396 8.24743 2.8068C8.16745 2.78891 8.08699 2.77336 8.00614 2.76015C7.71676 2.71251 7.40067 2.69002 7.06121 2.69002H4.19758C4.12924 2.68986 4.06175 2.70547 4.0002 2.73567C3.93326 2.76818 3.87511 2.81679 3.8308 2.87731C3.78649 2.93782 3.75735 3.00841 3.7459 3.08296L3.13723 7.00871L3.11965 7.12315C3.15969 6.86483 3.37688 6.6743 3.6341 6.6743H4.70614C6.81153 6.6743 8.46004 5.80442 8.9416 3.28803C8.95594 3.21361 8.96797 3.14149 8.97903 3.0704C8.85707 3.00492 8.72508 2.94834 8.58293 2.90038C8.54706 2.88828 8.51099 2.87682 8.47473 2.86601" fill="#1F264F"/>
</g>
<defs>
<clipPath id="clip0_190_874">
<rect width="10" height="12" fill="white"/>
</clipPath>
</defs>
</svg>
